<?xml version="1.0" encoding="utf-8"?>
<!-- Generator: Adobe Illustrator 16.0.0, SVG Export Plug-In . SVG Version: 6.00 Build 0)  -->
<!DOCTYPE svg PUBLIC "-//W3C//DTD SVG 1.1//EN" "http://www.w3.org/Graphics/SVG/1.1/DTD/svg11.dtd">
<svg version="1.1" id="Layer_1" xmlns="http://www.w3.org/2000/svg" xmlns:xlink="http://www.w3.org/1999/xlink" x="0px" y="0px"
	 width="183.736px" height="20.021px" viewBox="0 0 183.736 20.021" enable-background="new 0 0 183.736 20.021"
	 xml:space="preserve">
<g>
	<path fill="#FFFFFF" d="M6.792,12.289H2.45v7.478H0V1.282h6.119c2.082,0,3.684,0.474,4.805,1.422s1.682,2.328,1.682,4.139
		c0,1.151-0.311,2.154-0.933,3.009s-1.487,1.494-2.596,1.917l4.342,7.846v0.152h-2.615L6.792,12.289z M2.45,10.296h3.745
		c1.21,0,2.173-0.313,2.888-0.941s1.073-1.467,1.073-2.519c0-1.145-0.341-2.022-1.022-2.632c-0.681-0.611-1.665-0.92-2.952-0.929
		H2.45V10.296z"/>
	<path fill="#FFFFFF" d="M28.708,13.901c-0.229,1.955-0.95,3.464-2.165,4.526s-2.829,1.593-4.843,1.593
		c-2.184,0-3.934-0.783-5.25-2.349s-1.974-3.661-1.974-6.284V9.61c0-1.718,0.307-3.229,0.92-4.532s1.483-2.304,2.609-3.002
		s2.429-1.047,3.91-1.047c1.963,0,3.538,0.548,4.723,1.644s1.875,2.613,2.069,4.551h-2.45c-0.211-1.477-0.671-2.547-1.377-3.209
		s-1.695-0.993-2.964-0.993c-1.557,0-2.778,0.576-3.663,1.728c-0.884,1.152-1.327,2.791-1.327,4.917v1.792
		c0,2.007,0.419,3.604,1.257,4.79c0.838,1.186,2.01,1.779,3.517,1.779c1.354,0,2.393-0.307,3.117-0.92s1.204-1.682,1.441-3.206
		H28.708z"/>
	<path fill="#FFFFFF" d="M36.571,11.527c-2.09-0.601-3.612-1.339-4.564-2.215s-1.428-1.957-1.428-3.244
		c0-1.456,0.582-2.66,1.746-3.612s2.677-1.428,4.539-1.428c1.27,0,2.401,0.246,3.396,0.736s1.765,1.168,2.311,2.031
		s0.819,1.807,0.819,2.831h-2.451c0-1.121-0.355-2.002-1.066-2.644s-1.714-0.962-3.009-0.962c-1.202,0-2.139,0.265-2.812,0.795
		c-0.673,0.53-1.009,1.266-1.009,2.207c0,0.755,0.319,1.393,0.958,1.914c0.639,0.521,1.727,0.999,3.263,1.431
		C38.799,9.8,40,10.277,40.868,10.797s1.511,1.128,1.93,1.822s0.628,1.511,0.628,2.45c0,1.498-0.583,2.698-1.751,3.599
		s-2.729,1.352-4.685,1.352c-1.27,0-2.455-0.243-3.555-0.73s-1.949-1.153-2.545-2s-0.895-1.807-0.895-2.882h2.45
		c0,1.117,0.413,2,1.238,2.647s1.928,0.971,3.307,0.971c1.287,0,2.272-0.262,2.958-0.787s1.028-1.24,1.028-2.146
		s-0.317-1.606-0.952-2.101S38.238,12.01,36.571,11.527z"/>
	<path fill="#FFFFFF" d="M51.725,19.767V8.315H49.63V6.03h2.095V4.773c0-1.523,0.423-2.7,1.27-3.529S55.025,0,56.549,0
		c0.542,0,1.117,0.076,1.727,0.229l-0.076,2.412c-0.339-0.068-0.732-0.102-1.181-0.102c-1.473,0-2.209,0.757-2.209,2.272V6.03h2.793
		v2.285H54.81v11.451H51.725z"/>
	<path fill="#FFFFFF" d="M58.368,12.771c0-1.346,0.267-2.558,0.8-3.637s1.282-1.909,2.247-2.488s2.073-0.87,3.326-0.87
		c1.854,0,3.358,0.597,4.513,1.79c1.156,1.193,1.78,2.776,1.873,4.748l0.013,0.724c0,1.354-0.261,2.564-0.78,3.631
		c-0.521,1.066-1.266,1.892-2.234,2.476c-0.97,0.584-2.089,0.876-3.358,0.876c-1.938,0-3.489-0.646-4.653-1.936
		c-1.163-1.291-1.745-3.011-1.745-5.161V12.771z M61.453,13.038c0,1.414,0.292,2.52,0.876,3.32s1.396,1.2,2.438,1.2
		s1.852-0.406,2.431-1.219c0.58-0.813,0.87-2.001,0.87-3.567c0-1.388-0.298-2.488-0.896-3.301c-0.596-0.813-1.406-1.219-2.431-1.219
		c-1.007,0-1.807,0.4-2.399,1.2S61.453,11.447,61.453,13.038z"/>
	<path fill="#FFFFFF" d="M80.03,8.849c-0.406-0.068-0.825-0.102-1.257-0.102c-1.413,0-2.365,0.542-2.856,1.625v9.395h-3.085V6.03
		h2.945l0.076,1.536c0.745-1.193,1.777-1.79,3.098-1.79c0.44,0,0.804,0.059,1.092,0.178L80.03,8.849z"/>
	<path fill="#FFFFFF" d="M86.932,19.767V1.282h6.335c2.091,0,3.682,0.419,4.773,1.257s1.638,2.086,1.638,3.745
		c0,0.846-0.229,1.608-0.686,2.285s-1.126,1.202-2.006,1.574c0.999,0.271,1.771,0.781,2.316,1.53
		c0.547,0.749,0.819,1.648,0.819,2.698c0,1.735-0.557,3.068-1.669,3.999c-1.113,0.931-2.707,1.396-4.78,1.396H86.932z M90.144,9.064
		h3.148c0.999,0,1.779-0.227,2.343-0.679c0.563-0.453,0.844-1.094,0.844-1.923c0-0.914-0.26-1.574-0.781-1.98
		c-0.52-0.406-1.33-0.609-2.431-0.609h-3.123V9.064z M90.144,11.426v5.776h3.567c1.007,0,1.794-0.25,2.361-0.749
		s0.851-1.193,0.851-2.082c0-1.921-0.981-2.903-2.945-2.945H90.144z"/>
	<path fill="#FFFFFF" d="M110.447,18.421c-0.905,1.066-2.192,1.6-3.859,1.6c-1.489,0-2.617-0.436-3.383-1.308
		c-0.767-0.872-1.149-2.133-1.149-3.783V6.03h3.085v8.861c0,1.744,0.724,2.615,2.171,2.615c1.498,0,2.51-0.538,3.034-1.612V6.03
		h3.085v13.736h-2.907L110.447,18.421z"/>
	<path fill="#FFFFFF" d="M123.363,16.034c0-0.55-0.227-0.969-0.679-1.257c-0.453-0.288-1.204-0.542-2.254-0.762
		s-1.926-0.5-2.628-0.838c-1.54-0.745-2.311-1.824-2.311-3.237c0-1.185,0.499-2.175,1.498-2.971s2.269-1.193,3.809-1.193
		c1.642,0,2.969,0.406,3.979,1.219c1.012,0.813,1.518,1.866,1.518,3.161h-3.085c0-0.592-0.22-1.085-0.66-1.479
		s-1.024-0.59-1.752-0.59c-0.677,0-1.229,0.157-1.657,0.47c-0.427,0.313-0.641,0.732-0.641,1.257c0,0.474,0.199,0.842,0.597,1.104
		s1.202,0.527,2.412,0.793s2.16,0.584,2.851,0.952c0.689,0.368,1.201,0.811,1.535,1.327c0.335,0.516,0.502,1.143,0.502,1.879
		c0,1.236-0.512,2.236-1.536,3.002s-2.365,1.149-4.024,1.149c-1.126,0-2.129-0.203-3.009-0.609s-1.565-0.965-2.057-1.676
		s-0.736-1.477-0.736-2.298h2.996c0.042,0.728,0.317,1.289,0.825,1.682s1.181,0.59,2.019,0.59c0.813,0,1.431-0.154,1.854-0.463
		S123.363,16.534,123.363,16.034z"/>
	<path fill="#FFFFFF" d="M128.179,2.463c0-0.474,0.15-0.868,0.45-1.181c0.301-0.313,0.73-0.47,1.289-0.47s0.99,0.157,1.295,0.47
		s0.457,0.707,0.457,1.181c0,0.465-0.152,0.853-0.457,1.162s-0.736,0.463-1.295,0.463s-0.988-0.154-1.289-0.463
		C128.329,3.315,128.179,2.928,128.179,2.463z M131.454,19.767h-3.085V6.03h3.085V19.767z"/>
	<path fill="#FFFFFF" d="M136.765,6.03l0.089,1.587c1.016-1.227,2.349-1.841,3.999-1.841c2.86,0,4.316,1.638,4.367,4.913v9.077
		h-3.085v-8.899c0-0.872-0.188-1.517-0.565-1.936c-0.376-0.419-0.992-0.628-1.847-0.628c-1.244,0-2.171,0.563-2.78,1.688v9.775
		h-3.085V6.03H136.765z"/>
	<path fill="#FFFFFF" d="M153.501,20.021c-1.955,0-3.54-0.616-4.755-1.847c-1.214-1.231-1.821-2.871-1.821-4.919v-0.381
		c0-1.371,0.265-2.596,0.794-3.675c0.528-1.079,1.271-1.919,2.228-2.52s2.022-0.901,3.199-0.901c1.87,0,3.315,0.597,4.335,1.79
		c1.021,1.193,1.53,2.882,1.53,5.065v1.244h-8.976c0.093,1.134,0.472,2.031,1.137,2.691c0.664,0.66,1.5,0.99,2.507,0.99
		c1.413,0,2.564-0.571,3.453-1.714l1.663,1.587c-0.55,0.821-1.284,1.458-2.203,1.911C155.674,19.794,154.644,20.021,153.501,20.021z
		 M153.133,8.252c-0.847,0-1.529,0.296-2.051,0.889c-0.52,0.592-0.853,1.417-0.996,2.476h5.878v-0.229
		c-0.067-1.033-0.343-1.813-0.825-2.342S153.987,8.252,153.133,8.252z"/>
	<path fill="#FFFFFF" d="M168.193,16.034c0-0.55-0.227-0.969-0.679-1.257c-0.453-0.288-1.204-0.542-2.254-0.762
		s-1.926-0.5-2.628-0.838c-1.54-0.745-2.311-1.824-2.311-3.237c0-1.185,0.499-2.175,1.498-2.971s2.269-1.193,3.809-1.193
		c1.642,0,2.969,0.406,3.979,1.219c1.012,0.813,1.518,1.866,1.518,3.161h-3.085c0-0.592-0.22-1.085-0.66-1.479
		s-1.024-0.59-1.752-0.59c-0.677,0-1.229,0.157-1.657,0.47c-0.427,0.313-0.641,0.732-0.641,1.257c0,0.474,0.199,0.842,0.597,1.104
		s1.202,0.527,2.412,0.793s2.16,0.584,2.851,0.952c0.689,0.368,1.201,0.811,1.535,1.327c0.335,0.516,0.502,1.143,0.502,1.879
		c0,1.236-0.512,2.236-1.536,3.002s-2.365,1.149-4.024,1.149c-1.126,0-2.129-0.203-3.009-0.609s-1.565-0.965-2.057-1.676
		s-0.736-1.477-0.736-2.298h2.996c0.042,0.728,0.317,1.289,0.825,1.682s1.181,0.59,2.019,0.59c0.813,0,1.431-0.154,1.854-0.463
		S168.193,16.534,168.193,16.034z"/>
	<path fill="#FFFFFF" d="M180.702,16.034c0-0.55-0.227-0.969-0.679-1.257c-0.453-0.288-1.204-0.542-2.254-0.762
		s-1.926-0.5-2.628-0.838c-1.54-0.745-2.311-1.824-2.311-3.237c0-1.185,0.499-2.175,1.498-2.971s2.269-1.193,3.809-1.193
		c1.642,0,2.969,0.406,3.979,1.219c1.012,0.813,1.518,1.866,1.518,3.161h-3.085c0-0.592-0.22-1.085-0.66-1.479
		s-1.024-0.59-1.752-0.59c-0.677,0-1.229,0.157-1.657,0.47c-0.427,0.313-0.641,0.732-0.641,1.257c0,0.474,0.199,0.842,0.597,1.104
		s1.202,0.527,2.412,0.793s2.16,0.584,2.851,0.952c0.689,0.368,1.201,0.811,1.535,1.327c0.335,0.516,0.502,1.143,0.502,1.879
		c0,1.236-0.512,2.236-1.536,3.002s-2.365,1.149-4.024,1.149c-1.126,0-2.129-0.203-3.009-0.609s-1.565-0.965-2.057-1.676
		s-0.736-1.477-0.736-2.298h2.996c0.042,0.728,0.317,1.289,0.825,1.682s1.181,0.59,2.019,0.59c0.813,0,1.431-0.154,1.854-0.463
		S180.702,16.534,180.702,16.034z"/>
</g>
</svg>
