<?xml version="1.0" encoding="utf-8"?>
<!-- Generator: Adobe Illustrator 16.0.0, SVG Export Plug-In . SVG Version: 6.00 Build 0)  -->
<!DOCTYPE svg PUBLIC "-//W3C//DTD SVG 1.1//EN" "http://www.w3.org/Graphics/SVG/1.1/DTD/svg11.dtd">
<svg version="1.1" id="Layer_1" xmlns="http://www.w3.org/2000/svg" xmlns:xlink="http://www.w3.org/1999/xlink" x="0px" y="0px"
	 width="140.25px" height="31.091px" viewBox="0 0 140.25 31.091" enable-background="new 0 0 140.25 31.091" xml:space="preserve">
<g>
	<defs>
		<rect id="SVGID_1_" width="30" height="28.318"/>
	</defs>
	<clipPath id="SVGID_2_">
		<use xlink:href="#SVGID_1_"  overflow="visible"/>
	</clipPath>
	<g clip-path="url(#SVGID_2_)">
		<path fill="#222222" d="M29.439,20.467H0.561C0.251,20.467,0,20.216,0,19.905V0.56C0,0.25,0.251,0,0.561,0h28.879
			C29.749,0,30,0.25,30,0.56v19.345C30,20.216,29.749,20.467,29.439,20.467z M1.122,19.345h27.757V1.121H1.122V19.345z"/>
	</g>
	<g clip-path="url(#SVGID_2_)">
		<path fill="#222222" d="M29.299,16.821H0.701c-0.31,0-0.561-0.25-0.561-0.561c0-0.31,0.251-0.561,0.561-0.561h28.598
			c0.311,0,0.561,0.251,0.561,0.561C29.859,16.571,29.609,16.821,29.299,16.821z"/>
	</g>
	<g clip-path="url(#SVGID_2_)">
		<path fill="#222222" d="M15,26.915c-0.31,0-0.561-0.251-0.561-0.561v-5.888c0-0.311,0.251-0.562,0.561-0.562
			s0.561,0.251,0.561,0.562v5.888C15.561,26.664,15.31,26.915,15,26.915z"/>
	</g>
	<g clip-path="url(#SVGID_2_)">
		<path fill="#222222" d="M22.149,28.318H7.851c-0.31,0-0.561-0.251-0.561-0.562c0-0.31,0.251-0.561,0.561-0.561h14.299
			c0.311,0,0.561,0.251,0.561,0.561C22.71,28.067,22.46,28.318,22.149,28.318z"/>
	</g>
</g>
<g>
	<defs>
		<rect id="SVGID_3_" x="36.75" width="30" height="29.263"/>
	</defs>
	<clipPath id="SVGID_4_">
		<use xlink:href="#SVGID_3_"  overflow="visible"/>
	</clipPath>
	<g clip-path="url(#SVGID_4_)">
		<path fill="#222222" d="M51.768,18.939c-4.989,0-9.048-4.06-9.048-9.048V0.462C42.72,0.207,42.927,0,43.183,0h17.171
			c0.256,0,0.463,0.207,0.463,0.462v9.429C60.816,14.88,56.757,18.939,51.768,18.939z M43.646,0.925v8.966
			c0,4.479,3.644,8.123,8.122,8.123c4.479,0,8.123-3.644,8.123-8.123V0.925H43.646z"/>
	</g>
	<g clip-path="url(#SVGID_4_)">
		<path fill="#222222" d="M51.768,29.157c-0.256,0-0.463-0.207-0.463-0.463V18.477c0-0.256,0.207-0.463,0.463-0.463
			s0.463,0.207,0.463,0.463v10.218C52.23,28.95,52.023,29.157,51.768,29.157z"/>
	</g>
	<g clip-path="url(#SVGID_4_)">
		<path fill="#222222" d="M56.034,29.263h-8.533c-0.256,0-0.463-0.207-0.463-0.462c0-0.256,0.207-0.463,0.463-0.463h8.533
			c0.256,0,0.463,0.207,0.463,0.463C56.497,29.056,56.29,29.263,56.034,29.263z"/>
	</g>
	<g clip-path="url(#SVGID_4_)">
		<path fill="#222222" d="M43.112,11.987c-6.069,0-6.36-8.791-6.362-8.879c-0.003-0.125,0.044-0.245,0.132-0.334
			c0.087-0.089,0.206-0.14,0.331-0.14h5.899c0.255,0,0.462,0.207,0.462,0.462c0,0.256-0.207,0.463-0.462,0.463h-5.406
			c0.149,1.717,0.981,7.502,5.406,7.502c0.255,0,0.462,0.207,0.462,0.463C43.574,11.779,43.367,11.987,43.112,11.987z"/>
	</g>
	<g clip-path="url(#SVGID_4_)">
		<path fill="#222222" d="M60.389,11.987c-0.256,0-0.463-0.208-0.463-0.463c0-0.256,0.207-0.463,0.463-0.463
			c4.432,0,5.258-5.786,5.405-7.502h-5.405c-0.256,0-0.463-0.207-0.463-0.463c0-0.255,0.207-0.462,0.463-0.462h5.898
			c0.125,0,0.244,0.05,0.331,0.14c0.088,0.089,0.135,0.21,0.132,0.334C66.748,3.197,66.458,11.987,60.389,11.987z"/>
	</g>
	<g clip-path="url(#SVGID_4_)">
		<path fill="#222222" d="M48.882,12.65c-0.096,0-0.191-0.03-0.271-0.089c-0.143-0.104-0.214-0.278-0.185-0.452l0.507-2.955
			l-2.146-2.092c-0.126-0.123-0.171-0.307-0.117-0.474c0.055-0.167,0.199-0.29,0.374-0.315l2.966-0.432l1.326-2.688
			c0.155-0.316,0.675-0.316,0.83,0l1.327,2.688l2.966,0.432c0.174,0.025,0.318,0.147,0.373,0.315s0.01,0.351-0.116,0.474
			l-2.146,2.092l0.49,2.866c0.021,0.052,0.031,0.108,0.031,0.167c0,0.256-0.207,0.463-0.462,0.463c-0.003,0-0.006,0-0.01,0
			c-0.073,0-0.147-0.018-0.215-0.054l-2.653-1.395l-2.652,1.395C49.029,12.633,48.955,12.65,48.882,12.65z M51.75,10.217
			c0.074,0,0.147,0.018,0.216,0.053l2.038,1.072l-0.389-2.271c-0.026-0.15,0.023-0.303,0.133-0.41l1.649-1.607l-2.279-0.332
			c-0.151-0.022-0.281-0.116-0.349-0.253l-1.02-2.065L50.73,6.47c-0.067,0.137-0.197,0.231-0.348,0.253l-2.28,0.332l1.65,1.607
			c0.108,0.106,0.158,0.26,0.133,0.41l-0.39,2.271l2.038-1.072C51.603,10.234,51.676,10.217,51.75,10.217z"/>
	</g>
</g>
<g>
	<defs>
		<rect id="SVGID_5_" x="73.5" width="30" height="31.091"/>
	</defs>
	<clipPath id="SVGID_6_">
		<use xlink:href="#SVGID_5_"  overflow="visible"/>
	</clipPath>
	<g clip-path="url(#SVGID_6_)">
		<path fill="#222222" d="M102.954,31.091H74.046c-0.302,0-0.546-0.244-0.546-0.545v-22C73.5,8.244,73.744,8,74.046,8h28.908
			c0.302,0,0.546,0.244,0.546,0.545v22C103.5,30.847,103.256,31.091,102.954,31.091z M74.591,30h27.818V9.091H74.591V30z"/>
	</g>
	<g clip-path="url(#SVGID_6_)">
		<path fill="#222222" d="M98.409,9.091H78.591c-0.302,0-0.546-0.244-0.546-0.545C78.045,3.833,81.879,0,86.591,0h3.818
			c4.712,0,8.545,3.833,8.545,8.545C98.954,8.847,98.71,9.091,98.409,9.091z M79.156,8h18.688c-0.28-3.856-3.508-6.909-7.435-6.909
			h-3.818C82.663,1.091,79.437,4.144,79.156,8z"/>
	</g>
	<g clip-path="url(#SVGID_6_)">
		<path fill="#222222" d="M80.272,18h-5.954c-0.302,0-0.546-0.244-0.546-0.545c0-0.302,0.244-0.546,0.546-0.546h5.954
			c0.302,0,0.545,0.244,0.545,0.546C80.817,17.756,80.574,18,80.272,18z"/>
	</g>
	<g clip-path="url(#SVGID_6_)">
		<path fill="#222222" d="M83.636,21.091h-3.363c-0.302,0-0.546-0.244-0.546-0.546v-5c0-0.301,0.244-0.545,0.546-0.545h3.363
			c0.302,0,0.546,0.244,0.546,0.545v5C84.182,20.847,83.938,21.091,83.636,21.091z M80.817,20h2.273v-3.909h-2.273V20z"/>
	</g>
	<g clip-path="url(#SVGID_6_)">
		<path fill="#222222" d="M96.728,21.091h-3.364c-0.302,0-0.546-0.244-0.546-0.546v-5c0-0.301,0.244-0.545,0.546-0.545h3.364
			c0.301,0,0.545,0.244,0.545,0.545v5C97.272,20.847,97.028,21.091,96.728,21.091z M93.909,20h2.272v-3.909h-2.272V20z"/>
	</g>
	<g clip-path="url(#SVGID_6_)">
		<path fill="#222222" d="M93.363,18h-9.772c-0.302,0-0.545-0.244-0.545-0.545c0-0.302,0.243-0.546,0.545-0.546h9.772
			c0.302,0,0.546,0.244,0.546,0.546C93.909,17.756,93.665,18,93.363,18z"/>
	</g>
	<g clip-path="url(#SVGID_6_)">
		<path fill="#222222" d="M102.636,18h-5.954c-0.302,0-0.545-0.244-0.545-0.545c0-0.302,0.243-0.546,0.545-0.546h5.954
			c0.302,0,0.546,0.244,0.546,0.546C103.182,17.756,102.938,18,102.636,18z"/>
	</g>
</g>
<g>
	<defs>
		<rect id="SVGID_7_" x="110.25" width="30" height="29.319"/>
	</defs>
	<clipPath id="SVGID_8_">
		<use xlink:href="#SVGID_7_"  overflow="visible"/>
	</clipPath>
	<g clip-path="url(#SVGID_8_)">
		<path fill="#222222" d="M121.637,15.682c-2.294,0-4.159-1.835-4.159-4.091c0-0.301,0.244-0.546,0.545-0.546
			c0.302,0,0.546,0.245,0.546,0.546c0,1.654,1.376,3,3.068,3c1.691,0,3.067-1.346,3.067-3c0-0.301,0.244-0.546,0.546-0.546
			s0.546,0.245,0.546,0.546C125.796,13.847,123.93,15.682,121.637,15.682z"/>
	</g>
	<g clip-path="url(#SVGID_8_)">
		<path fill="#222222" d="M128.863,15.682c-2.293,0-4.159-1.835-4.159-4.091V0.955c0-0.301,0.244-0.545,0.546-0.545
			s0.546,0.244,0.546,0.545v10.637c0,1.654,1.376,3,3.067,3c1.692,0,3.068-1.346,3.068-3c0-0.301,0.244-0.546,0.546-0.546
			c0.301,0,0.545,0.245,0.545,0.546C133.022,13.847,131.157,15.682,128.863,15.682z"/>
	</g>
	<g clip-path="url(#SVGID_8_)">
		<path fill="#222222" d="M136.091,15.682c-2.293,0-4.159-1.835-4.159-4.091l-0.693-10.396c-0.002-0.035-0.001-0.07,0.003-0.104
			h-11.703l-0.972,10.55c0.002,2.206-1.864,4.041-4.157,4.041s-4.159-1.835-4.159-4.091c0-0.037,0.004-0.072,0.011-0.108
			l2.225-11.045C112.536,0.184,112.76,0,113.02,0h24.462c0.26,0,0.483,0.184,0.534,0.438l2.224,11.045
			c0.007,0.036,0.011,0.071,0.011,0.108C140.25,13.847,138.384,15.682,136.091,15.682z M132.324,1.091
			c0.001,0.01,0.002,0.021,0.003,0.032l0.694,10.432c0.001,1.691,1.378,3.037,3.069,3.037c1.674,0,3.039-1.318,3.067-2.948
			l-2.123-10.552H132.324z M111.342,11.643c0.028,1.631,1.394,2.948,3.067,2.948c1.691,0,3.068-1.346,3.068-3l0.965-10.5h-4.977
			L111.342,11.643z"/>
	</g>
	<g clip-path="url(#SVGID_8_)">
		<path fill="#222222" d="M137.318,29.319h-23.591c-0.302,0-0.546-0.244-0.546-0.547v-11.59c0-0.302,0.244-0.545,0.546-0.545
			c0.301,0,0.545,0.243,0.545,0.545v11.045h22.5V17.182c0-0.302,0.244-0.545,0.546-0.545s0.545,0.243,0.545,0.545v11.59
			C137.863,29.075,137.62,29.319,137.318,29.319z"/>
	</g>
	<g clip-path="url(#SVGID_8_)">
		<path fill="#222222" d="M133.091,29.046h-5.863c-0.302,0-0.546-0.244-0.546-0.545V17.319c0-0.302,0.244-0.546,0.546-0.546h5.863
			c0.302,0,0.546,0.244,0.546,0.546v11.182C133.637,28.802,133.393,29.046,133.091,29.046z M127.772,27.954h4.773v-10.09h-4.773
			V27.954z"/>
	</g>
</g>
</svg>
