<?xml version="1.0" encoding="utf-8"?>
<!-- Generator: Adobe Illustrator 16.0.0, SVG Export Plug-In . SVG Version: 6.00 Build 0)  -->
<!DOCTYPE svg PUBLIC "-//W3C//DTD SVG 1.1//EN" "http://www.w3.org/Graphics/SVG/1.1/DTD/svg11.dtd">
<svg version="1.1" id="Layer_1" xmlns="http://www.w3.org/2000/svg" xmlns:xlink="http://www.w3.org/1999/xlink" x="0px" y="0px"
	 width="225.855px" height="62.503px" viewBox="0 0 225.855 62.503" enable-background="new 0 0 225.855 62.503"
	 xml:space="preserve">
<g>
	<g>
		<path fill="#222222" d="M30.498,9.575c-0.529,0-0.957-0.429-0.957-0.958v-7.66C29.541,0.429,29.968,0,30.498,0
			c0.53,0,0.958,0.429,0.958,0.957v7.66C31.455,9.146,31.027,9.575,30.498,9.575z"/>
	</g>
	<g>
		<defs>
			<rect id="SVGID_1_" y="0" width="60" height="47.622"/>
		</defs>
		<clipPath id="SVGID_2_">
			<use xlink:href="#SVGID_1_"  overflow="visible"/>
		</clipPath>
		<g clip-path="url(#SVGID_2_)">
			<path fill="#222222" d="M30.499,47.623c-2.816,0-5.107-2.291-5.107-5.105c0-2.816,2.291-5.107,5.107-5.107
				s5.107,2.291,5.107,5.107C35.605,45.332,33.314,47.623,30.499,47.623z M30.499,39.324c-1.76,0-3.192,1.434-3.192,3.193
				s1.432,3.191,3.192,3.191c1.759,0,3.191-1.432,3.191-3.191S32.258,39.324,30.499,39.324z"/>
		</g>
		<g clip-path="url(#SVGID_2_)">
			<path fill="#222222" d="M26.349,43.474H9.705c-0.529,0-0.958-0.428-0.958-0.957s0.429-0.959,0.958-0.959h16.644
				c0.529,0,0.958,0.43,0.958,0.959S26.877,43.474,26.349,43.474z"/>
		</g>
		<g clip-path="url(#SVGID_2_)">
			<path fill="#222222" d="M51.482,43.474H34.838c-0.529,0-0.959-0.428-0.959-0.957s0.43-0.959,0.959-0.959h16.645
				c0.529,0,0.957,0.43,0.957,0.959S52.012,43.474,51.482,43.474z"/>
		</g>
		<g clip-path="url(#SVGID_2_)">
			<path fill="#E12F23" d="M41.74,29.271H18.259c-0.284,0-0.553-0.125-0.735-0.344c-0.183-0.217-0.258-0.506-0.207-0.783
				l1.062-5.837c0.314-1.731,1.449-3.221,3.037-3.983c0.042-0.021,0.085-0.037,0.129-0.051l4.742-1.481l0.229-1.201
				c-1.599-1.228-2.569-3.238-2.569-5.403c0-3.643,2.715-6.606,6.053-6.606c3.337,0,6.052,2.964,6.052,6.606
				c0,2.164-0.969,4.174-2.568,5.403l0.229,1.201l4.742,1.481c0.045,0.014,0.088,0.031,0.129,0.051
				c1.586,0.761,2.723,2.25,3.037,3.983l1.063,5.837c0.049,0.277-0.025,0.566-0.209,0.783C42.293,29.146,42.025,29.271,41.74,29.271
				z M19.406,27.357h21.188l-0.855-4.708c-0.203-1.108-0.92-2.065-1.924-2.57l-5.219-1.631c-0.338-0.105-0.59-0.387-0.656-0.735
				l-0.453-2.379c-0.074-0.394,0.104-0.793,0.447-1c1.359-0.818,2.205-2.407,2.205-4.147c0-2.587-1.857-4.692-4.138-4.692
				c-2.282,0-4.138,2.105-4.138,4.692c0,1.741,0.845,3.329,2.205,4.146c0.344,0.207,0.522,0.606,0.447,1l-0.454,2.379
				c-0.066,0.347-0.318,0.629-0.655,0.734l-5.22,1.631c-1.005,0.505-1.722,1.462-1.923,2.57L19.406,27.357z"/>
		</g>
		<g clip-path="url(#SVGID_2_)">
			<path fill="#222222" d="M13.184,25.691H0.958c-0.284,0-0.553-0.125-0.735-0.344c-0.182-0.217-0.258-0.504-0.207-0.783
				l1.061-5.837c0.315-1.732,1.451-3.222,3.038-3.983c0.042-0.021,0.085-0.037,0.129-0.051l4.742-1.481l0.229-1.201
				c-1.599-1.229-2.568-3.24-2.568-5.404C6.646,2.963,9.361,0,12.699,0c3.337,0,6.052,2.963,6.052,6.606
				c0,2.164-0.97,4.175-2.568,5.404l0.229,1.206l3.927,1.262c0.504,0.162,0.78,0.701,0.619,1.205
				c-0.162,0.502-0.699,0.78-1.205,0.619l-4.468-1.437c-0.333-0.107-0.582-0.388-0.647-0.732l-0.453-2.379
				c-0.075-0.394,0.103-0.793,0.447-1c1.36-0.818,2.205-2.408,2.205-4.148c0-2.586-1.856-4.691-4.137-4.691
				c-2.282,0-4.138,2.105-4.138,4.691c0,1.741,0.845,3.33,2.205,4.148c0.344,0.207,0.522,0.606,0.447,1l-0.453,2.379
				c-0.066,0.347-0.318,0.629-0.655,0.735l-5.22,1.631C3.879,17.004,3.162,17.96,2.96,19.07l-0.856,4.707h11.08
				c0.529,0,0.958,0.428,0.958,0.958C14.142,25.263,13.713,25.691,13.184,25.691z"/>
		</g>
		<g clip-path="url(#SVGID_2_)">
			<path fill="#222222" d="M59.043,25.691H46.816c-0.529,0-0.957-0.428-0.957-0.957c0-0.529,0.428-0.958,0.957-0.958h11.08
				l-0.857-4.707c-0.201-1.11-0.918-2.066-1.922-2.571l-5.221-1.631c-0.338-0.105-0.59-0.388-0.656-0.735l-0.453-2.379
				c-0.074-0.394,0.104-0.793,0.447-1c1.361-0.818,2.205-2.408,2.205-4.148c0-2.586-1.855-4.691-4.139-4.691
				c-2.279,0-4.135,2.105-4.135,4.691c0,1.74,0.844,3.33,2.203,4.148c0.344,0.207,0.521,0.606,0.447,1l-0.453,2.379
				c-0.064,0.344-0.314,0.625-0.648,0.732l-4.467,1.437c-0.504,0.162-1.043-0.116-1.205-0.619c-0.162-0.503,0.115-1.043,0.619-1.205
				l3.926-1.262l0.23-1.206c-1.598-1.229-2.568-3.24-2.568-5.404C41.25,2.963,43.965,0,47.301,0c3.34,0,6.055,2.963,6.055,6.606
				c0,2.165-0.971,4.175-2.57,5.404l0.229,1.201l4.744,1.481c0.045,0.014,0.088,0.031,0.129,0.051
				c1.586,0.762,2.723,2.251,3.037,3.983l1.061,5.837c0.053,0.279-0.023,0.566-0.205,0.783
				C59.598,25.566,59.328,25.691,59.043,25.691z"/>
		</g>
	</g>
</g>
<g>
	<defs>
		<rect id="SVGID_3_" x="146.52" y="0" width="60" height="50.675"/>
	</defs>
	<clipPath id="SVGID_4_">
		<use xlink:href="#SVGID_3_"  overflow="visible"/>
	</clipPath>
	<g clip-path="url(#SVGID_4_)">
		<path fill="#222222" d="M202.531,50.675c-0.162,0-0.322-0.047-0.461-0.143l-6.498-4.488c-2.369,0.814-4.873,1.227-7.449,1.227
			c-10.145,0-18.396-6.369-18.396-14.199c0-7.828,8.252-14.197,18.396-14.197s18.396,6.369,18.396,14.197
			c0,3.262-1.457,6.424-4.113,8.949l0.93,7.748c0.039,0.316-0.113,0.627-0.387,0.791C202.82,50.638,202.676,50.675,202.531,50.675z
			 M195.693,44.332c0.162,0,0.322,0.049,0.461,0.143l5.357,3.701l-0.764-6.373c-0.031-0.262,0.066-0.523,0.262-0.699
			c2.508-2.258,3.889-5.109,3.889-8.031c0-6.934-7.525-12.575-16.775-12.575s-16.775,5.642-16.775,12.575
			c0,6.936,7.525,12.578,16.775,12.578c2.529,0,4.982-0.428,7.291-1.27C195.506,44.347,195.6,44.332,195.693,44.332z"/>
	</g>
	<g clip-path="url(#SVGID_4_)">
		<path fill="#222222" d="M201.369,20.167c-0.133,0-0.266-0.032-0.391-0.1c-0.393-0.217-0.535-0.709-0.318-1.103
			c0.834-1.515,1.258-3.119,1.258-4.767c0-6.935-7.525-12.577-16.775-12.577c-7.631,0-14.307,3.869-16.236,9.408
			c-0.146,0.424-0.605,0.647-1.031,0.499c-0.424-0.147-0.646-0.609-0.5-1.032C169.525,4.316,176.832,0,185.143,0
			c10.145,0,18.396,6.369,18.396,14.198c0,1.925-0.49,3.792-1.459,5.549C201.932,20.016,201.654,20.167,201.369,20.167z"/>
	</g>
	<g clip-path="url(#SVGID_4_)">
		<path fill="#E12F23" d="M150.506,44.755c-0.145,0-0.289-0.037-0.418-0.115c-0.273-0.166-0.426-0.475-0.387-0.793l0.932-7.748
			c-2.656-2.523-4.113-5.686-4.113-8.947c0-7.828,8.252-14.197,18.396-14.197c5.066,0,9.957,1.632,13.42,4.479
			c0.346,0.284,0.395,0.795,0.111,1.141c-0.285,0.345-0.795,0.396-1.141,0.112c-3.178-2.613-7.693-4.11-12.391-4.11
			c-9.25,0-16.775,5.642-16.775,12.575c0,2.922,1.381,5.775,3.889,8.031c0.195,0.176,0.293,0.438,0.262,0.699l-0.766,6.375
			l5.359-3.701c0.217-0.148,0.492-0.186,0.738-0.096c2.311,0.844,4.764,1.27,7.293,1.27c1.438,0,2.863-0.137,4.236-0.406
			c0.438-0.088,0.865,0.199,0.951,0.641c0.088,0.438-0.199,0.863-0.639,0.951c-1.477,0.289-3.006,0.436-4.549,0.436
			c-2.574,0-5.078-0.412-7.451-1.227l-6.498,4.488C150.828,44.708,150.668,44.755,150.506,44.755z"/>
	</g>
</g>
<g>
	<defs>
		<rect id="SVGID_5_" x="73.26" y="0" width="60" height="48.272"/>
	</defs>
	<clipPath id="SVGID_6_">
		<use xlink:href="#SVGID_5_"  overflow="visible"/>
	</clipPath>
	<g clip-path="url(#SVGID_6_)">
		<path fill="#222222" d="M83.646,31.753c-0.141,0-0.283-0.033-0.416-0.1c-6.242-3.211-9.971-8.585-9.971-14.378
			C73.26,7.75,83.311,0,95.664,0c4.623,0,9.059,1.072,12.83,3.103c0.443,0.238,0.607,0.791,0.369,1.233s-0.791,0.609-1.232,0.37
			c-3.508-1.887-7.645-2.885-11.967-2.885c-11.35,0-20.584,6.933-20.584,15.454c0,5.096,3.359,9.865,8.982,12.757
			c0.449,0.23,0.625,0.779,0.396,1.227C84.297,31.574,83.979,31.753,83.646,31.753z"/>
	</g>
	<g clip-path="url(#SVGID_6_)">
		<path fill="#222222" d="M128.334,48.273c-0.182,0-0.363-0.055-0.518-0.16l-8.262-5.705c-3.006,1.039-6.178,1.564-9.438,1.564
			c-12.758,0-23.139-8.002-23.139-17.836c0-9.833,10.381-17.833,23.139-17.833c12.762,0,23.143,8,23.143,17.833
			c0,4.109-1.846,8.094-5.205,11.266l1.184,9.852c0.041,0.355-0.127,0.703-0.436,0.889C128.66,48.23,128.496,48.273,128.334,48.273z
			 M119.689,40.484c0.182,0,0.363,0.055,0.518,0.16l6.98,4.822l-0.996-8.309c-0.035-0.295,0.074-0.588,0.295-0.785
			c3.191-2.875,4.951-6.51,4.951-10.236c0-8.829-9.564-16.011-21.32-16.011c-11.754,0-21.316,7.183-21.316,16.011
			c0,8.832,9.563,16.014,21.316,16.014c3.207,0,6.322-0.543,9.262-1.611C119.479,40.501,119.584,40.484,119.689,40.484z"/>
	</g>
	<g clip-path="url(#SVGID_6_)">
		<path fill="#E12F23" d="M104.451,26.166c0,1.611-1.305,2.914-2.914,2.914c-1.607,0-2.912-1.303-2.912-2.914
			c0-1.605,1.305-2.911,2.912-2.911C103.146,23.255,104.451,24.56,104.451,26.166"/>
	</g>
	<g clip-path="url(#SVGID_6_)">
		<path fill="#E12F23" d="M114.074,26.166c0,1.611-1.305,2.914-2.914,2.914c-1.607,0-2.912-1.303-2.912-2.914
			c0-1.605,1.305-2.911,2.912-2.911C112.77,23.255,114.074,24.56,114.074,26.166"/>
	</g>
	<g clip-path="url(#SVGID_6_)">
		<path fill="#E12F23" d="M123.697,26.166c0,1.611-1.305,2.914-2.914,2.914c-1.607,0-2.912-1.303-2.912-2.914
			c0-1.605,1.305-2.911,2.912-2.911C122.393,23.255,123.697,24.56,123.697,26.166"/>
	</g>
</g>
</svg>
